<svg xmlns="http://www.w3.org/2000/svg" viewBox="0 0 510.24 907.09"><defs><style>.cls-1{fill:#f7f8f9;}.cls-15,.cls-16,.cls-17,.cls-18,.cls-2,.cls-68{fill:none;}.cls-2,.cls-22,.cls-5{stroke:#1d1d1b;}.cls-10,.cls-12,.cls-15,.cls-16,.cls-17,.cls-18,.cls-2,.cls-22,.cls-3,.cls-30,.cls-31,.cls-32,.cls-33,.cls-4,.cls-5,.cls-6,.cls-68,.cls-7,.cls-8,.cls-9{stroke-miterlimit:10;}.cls-3{fill:#a9d4b4;stroke:#4fae32;}.cls-4{fill:#fde1d2;stroke:#020202;}.cls-5{fill:#e1cde5;}.cls-6,.cls-7{fill:#fde293;}.cls-6{stroke:#dcad02;}.cls-7{stroke:#ec622e;}.cls-8,.cls-9{fill:#fbdbe2;}.cls-8{stroke:#ec6aa4;}.cls-9{stroke:#d64290;}.cls-10,.cls-11{fill:#9fbde4;}.cls-10{stroke:#484c9b;}.cls-12{fill:#fffbf1;stroke:#f9c7b3;}.cls-13{fill:#6fbc85;}.cls-14{fill:#67bb8c;}.cls-15,.cls-16,.cls-17,.cls-18{stroke:#0b6e97;stroke-width:2px;}.cls-16{stroke-dasharray:2.01 2.01;}.cls-17{stroke-dasharray:2 2;}.cls-18{stroke-dasharray:1.57 1.57;}.cls-19{fill:#0b6e97;}.cls-20,.cls-22,.cls-32{fill:#fff;}.cls-21,.cls-23,.cls-24,.cls-25,.cls-26,.cls-27,.cls-28,.cls-29,.cls-34,.cls-43,.cls-49,.cls-57,.cls-59,.cls-66{fill:#1d1d1b;}.cls-21{opacity:0.41;}.cls-23{font-size:7.18px;}.cls-23,.cls-24,.cls-25,.cls-26,.cls-27,.cls-28,.cls-29,.cls-34,.cls-43,.cls-49,.cls-57,.cls-59,.cls-66{font-family:MyriadPro-Regular, Myriad Pro;}.cls-24{font-size:7.4px;}.cls-25{font-size:6.11px;}.cls-26{font-size:6.55px;}.cls-27{font-size:6.09px;}.cls-28{font-size:6.12px;}.cls-29{font-size:5.21px;}.cls-30{fill:#78909b;stroke:#5c591d;}.cls-31{fill:#dc3347;stroke:#841625;}.cls-32{stroke:#fff;}.cls-33{fill:#da0d21;stroke:#821528;}.cls-34{font-size:12px;}.cls-35{letter-spacing:0em;}.cls-36{letter-spacing:0.02em;}.cls-37{letter-spacing:0em;}.cls-38{letter-spacing:0em;}.cls-39{letter-spacing:-0.01em;}.cls-40{letter-spacing:-0.01em;}.cls-41{letter-spacing:0.01em;}.cls-42{letter-spacing:-0.01em;}.cls-43{font-size:11px;}.cls-44{letter-spacing:0em;}.cls-45{letter-spacing:0.02em;}.cls-46{letter-spacing:0em;}.cls-47{letter-spacing:0.01em;}.cls-48{letter-spacing:0em;}.cls-49{font-size:14px;}.cls-50{letter-spacing:0.01em;}.cls-51{letter-spacing:0.01em;}.cls-52{letter-spacing:0em;}.cls-53{letter-spacing:-0.01em;}.cls-54{letter-spacing:0em;}.cls-55{letter-spacing:0.01em;}.cls-56{letter-spacing:-0.01em;}.cls-57{font-size:9px;}.cls-58{letter-spacing:-0.09em;}.cls-59{font-size:15px;}.cls-60{letter-spacing:0em;}.cls-61{letter-spacing:0.02em;}.cls-62{letter-spacing:0em;}.cls-63{letter-spacing:0em;}.cls-64{letter-spacing:-0.01em;}.cls-65{letter-spacing:-0.01em;}.cls-66{font-size:16px;}.cls-67{letter-spacing:0.01em;}.cls-68{stroke:#293384;stroke-dasharray:2 2;}.cls-69{fill:#293384;}.cls-70{fill:#030405;}.cls-71{letter-spacing:0em;}.cls-72{letter-spacing:-0.01em;}.cls-73{letter-spacing:-0.01em;}</style></defs><g id="Layer_7" data-name="Layer 7"><rect class="cls-1" x="-253.3" y="-63.16" width="1001.87" height="1142.81"/></g><g id="Layer_6" data-name="Layer 6"><path class="cls-2" d="M101.34,846.08a355.28,355.28,0,0,1,13.56-41.42C123.72,782.5,134,753.25,134,753.25s12.58-25.22,19.8-45.14,21.38-53.93,21.38-53.93-20.12-18.6-21.89-44.95c3.89-24.4,7.47-62.6,8.79-72.1s2.27-28.7,2.27-28.7,2.21-11.48,1.38-20.17,8.46-62.15,8.46-62.15l3.26-21.7s8.41-8.09-4.93-39.08S155,240.94,155,240.94s5.32-24.93,29.16-65.87S262.06,73.58,262.06,73.58s47-25.12,94.57-42.27c23.47-7.23,35.47-10.12,35.47-10.12L448.66,17,431.64-15l16.4-2.1,15.77,30.89s-.61,9.24,14.28,11.8L493,28.12l.39,16.22L448.25,31.09l-50.65.3-76.67,29L272.57,81.89s-51.42,54.63-65.07,83.53c-12.13,24.24-40.16,75.76-40.16,75.76l12.23,101s7.65,28.22,13.53,35.83S177.87,520.5,177.87,520.5L169.29,604s-.82,34.69,25.2,42.88,66.15-43.82,66.15-43.82S285.43,549.47,332,545c15.79-29.71,51.19-109.41,51.19-109.41l16.34-39.12s2.51-4.45,6.1-9.57c6.7-23.26,47.72-14.38,67.45-26.2.76-.15-3.09-25-8.85-37.41-8.66,4.54-22.83,6.62-30,7.32-3.59-17.2.15-53.55,3.78-51.64.93-.23,8.69-1.28,9.29,3,1.24,8.9-4.75,27.48-1.12,31,5.25,5.07,18.09-9.56,26.68-4.89,6.6,8.35,9.57,41.13,15.22,49,7.58-2.32,13.82-4.5,14.46-4.6,1.61-.23,7.45-2.1,15-4.66,4.13-1.39,8.76-3,13.48-4.65,17.05-6,35.3-12.59,35.3-12.59L571,341.89l-99.76,35.5-25.56,6.75A17.55,17.55,0,0,0,436,383c-5.76.84-13.41,4.42-21,15.35a94.58,94.58,0,0,0-10.3,20.11c-17.82,46-59.93,134-59.93,134L445,835.82l55.65,18.5s97-24,112.25-13.14-24.37,9.21-24.37,9.21l-62.6,12.73,12.23,4.93L515.74,876l-82.16-30.37L332.43,561.19s-26.08,2.49-48.59,33.92-42.79,64.47-96.66,69.26C177.82,685.1,153,745.22,153,745.22S141.37,775,138.88,785.78c-5.62,11.13-25.21,67.65-25.21,67.65Z"/><path class="cls-3" d="M-107.42,582.42l96.63-192.89S19.52,359.25,62,371.87s92.8,41.92,90.42,98.49l-1.58,15.33L74.49,654.53,60.16,670.59l-70.22,26.52s-45,8.81-76.36-30.92S-107.42,582.42-107.42,582.42Z"/><polygon class="cls-4" points="298.7 116.15 285.83 82.07 331.28 62.72 347.42 97.74 342.65 99.55 374.99 179.4 395.9 174.05 415.93 222.27 359.24 243.68 305.15 115.89 298.7 116.15"/><rect class="cls-5" x="262.31" y="150.28" width="43.57" height="49.02" transform="translate(-43.44 111.66) rotate(-20.69)"/><polygon class="cls-5" points="307.3 174.58 326.87 167.19 332.25 179.9 312 187 307.3 174.58"/><path class="cls-6" d="M-.91,797.92s58,23.41,73.65,31.68,58.82,32.9,74.54,58.63,18.61,57.92,21,72.86,9.13,47.31,9.13,47.31l-24.84,9.39-12.32-78.87s.66-48.83-73.77-84L-8,819.69Z"/><path class="cls-7" d="M168.56,244.64s19.59,6.06,32.08-6.85S235,185.35,235,185.35l14.69-23.74,8.18,5.28-50.75,87.22,6,15.76-40.36,15.25Z"/><polygon class="cls-4" points="189.49 229 193.59 221.44 189.06 218.65 203.18 194.08 208.94 196.68 217.25 182.21 229.52 189.04 215.54 214.52 210.54 211.76 206.86 220.8 202.7 218.82 195.32 232.53 189.49 229"/><polygon class="cls-5" points="213.02 269.87 207.07 254.11 257.82 166.89 263.23 181.22 227.35 248.08 236.92 273.4 228 276.77 224.15 266.58 213.32 270.67 213.02 269.87"/><polygon class="cls-4" points="182.75 282.21 224.15 266.58 237.02 300.65 195.98 317.25 182.75 282.21"/><path class="cls-8" d="M337.57,408.84l-19.87,9.08-14.34-19.69-16.64,7-3.37-8.92L226.76,422.8l3.13,8.27-7.77,5.49-11.79-1.37L206.05,447l11.46,7.2,5.81,15.4-7.59,26.15,72.7,26.77,10.43-24.69,61.74-38.61ZM322,471.62l-2.2-3.9-9.56,4,.26,6.44L287,487l-54.28-21.34-8.56-14s-1.59-13.83,10.86-9.8a11.87,11.87,0,0,0,3.48,4.39l49.07-21.33,13.62,28.7,13.18-5L307.07,435l12.1-4.57L335.11,463Z"/><polygon class="cls-8" points="196.54 348.33 226.55 335.54 231 347.32 283.87 327.35 295.71 349.08 322.78 338.86 335.5 372.54 273.08 396.11 257.38 354.55 205.92 373.17 196.54 348.33"/><polygon class="cls-9" points="107.12 826.32 77.48 814.7 83.47 797.15 114.9 804.66 107.12 826.32"/><path class="cls-10" d="M-22,750.75s-19,1.72-15.93-10.36,10-25.6,10-25.6a72.22,72.22,0,0,0,34.29-7.5c17.43-8.76,70.48-25.53,70.48-25.53s36.78-8.43,40.67-32.82l9.21,4.16s3.18,31.55,8.94,38.11c2.9,16.37,8.52,40.29,8.52,40.29l-13,29.7s-47.25,11.23-61.92-.15-40.62,6.61-61.37.81S-22,750.75-22,750.75Z"/><path class="cls-10" d="M158.16,762.39l9.33-21.53,19-10.45s26.66-24.81,27.63-41L235,678.24s38.83-7,43.47-16.42c12.24-5.17,22.41-9.56,28.14-22.09s13.71-18.83,13.71-18.83,2,21.09,10.83,28.66a37.85,37.85,0,0,1,3.27,17.32l10.06,9.3s-13.06,1.12-19.36-5.24c-11.32-2.27-26.57,16.59-17.88,28a102.4,102.4,0,0,1,13,22.92s11.4,18.62,13.39,28.24c8.74,4.34,25.92,42.61,25.92,42.61s17,20.34,25.1,21.64c4.92,10.14,21.95,32.1,21.14,44.41s-4.4,36.05-3.67,38-2.65,19,1.67,26.12c-10.62,5.1-73.56,27.78-73.56,27.78s-12.58-11.62-12.6-20.35,3.37-12.74-6.58-27.53-12.89-39.9-12.89-39.9-8.67-27.29-31.69-33.33c-14.9-4.75-16.35-12.93-16.35-12.93s-18.55-7.19-28.93,0c-13.44,3.44-38.4-15-38.4-15s-12.14-11.9-12.38-18.31.65-12.74-4.26-14.16S155.7,768.06,158.16,762.39Z"/><polygon class="cls-11" points="311.76 264.42 301.54 237.35 327.03 226.81 339.47 253.95 311.76 264.42"/><rect class="cls-11" x="338.52" y="259.64" width="10.72" height="7.66" transform="translate(-70.92 138.51) rotate(-20.69)"/><polygon class="cls-12" points="391.68 319.93 392.06 300.68 407.28 301.48 410.29 255.04 433.24 255.1 432.15 321.56 421.81 321.65 422.06 328.1 414.59 327.1 414.68 321.07 391.68 319.93"/><polygon class="cls-13" points="237.99 364.88 257.07 408.62 259.07 407.68 239.78 363.11 237.63 363.92 237.99 364.88"/><path class="cls-14" d="M296.86,345.37,321.7,336l52.8,5.89s7.27,0,5.72,15.13-2.47,34.41-2.47,34.41l1.45,6.73,20.37-1.71-.86,2.06L378.63,400l-18.08,3.56-45.28-13.29-29.52,9.52-.66-1.75,30.18-9.22,44.57,13L376.77,398,375,389.53,379,352.75s1.87-12.23-15.12-9.21c-17.22-2.23-41.55-6-41.55-6l-25.12,9.13Z"/><path class="cls-15" d="M107,847.23s.13-.32.36-.92"/><path class="cls-16" d="M108,844.43c5.31-13.76,28.65-74.19,35.69-91.33,7.25-17.63,34.22-86.57,39-98.84"/><path class="cls-15" d="M183.11,653.32l.37-.93s-.27-.22-.76-.65"/><path class="cls-17" d="M181.26,650.38c-5.88-5.63-21.37-22.53-20.42-43.47,1.16-25.83,13.62-113.5,13.62-113.5l11.95-100.59s.57-23.05-12-37.58c-4.27-18.46-11.81-77.8-13.27-89.43"/><path class="cls-15" d="M161,264.81c-.09-.65-.13-1-.13-1l.9-.44"/><path class="cls-18" d="M163.2,262.72c1.32-.61,3.1-1.39,5.05-2.17"/><path class="cls-15" d="M169,260.26l.94-.35"/><polygon class="cls-19" points="161.17 269.06 167.98 261.31 159.19 255.9 182.84 259.08 161.17 269.06"/><polygon class="cls-20" points="164.09 266.67 180.34 259.45 169.17 261.13 164.09 266.67"/><polyline class="cls-2" points="213.72 276.34 219.39 274.2 221.31 279.29 212.59 282.59 208.75 272.4"/><line class="cls-2" x1="218.01" y1="274.72" x2="219.94" y2="279.81"/><line class="cls-2" x1="216.42" y1="275.46" x2="218.34" y2="280.56"/><line class="cls-2" x1="215.07" y1="275.97" x2="216.99" y2="281.07"/><line class="cls-2" x1="213.28" y1="275.92" x2="215.4" y2="281.53"/><rect class="cls-4" x="270.28" y="158.62" width="28.85" height="33.65" transform="translate(-43.63 111.92) rotate(-20.69)"/><polygon class="cls-5" points="237.02 300.65 195.98 317.25 194.1 312.26 228.7 297.98 217.75 269 224.15 266.58 237.02 300.65"/><polygon class="cls-5" points="317.15 110.09 364.67 221.43 408.86 205.25 415.93 222.27 359.24 243.68 305.15 115.89 317.15 110.09"/><polygon class="cls-21" points="206.12 272.93 197.53 253.01 253.93 164.38 257.82 166.89 207.07 254.11 213.17 270.27 206.12 272.93"/></g><g id="Layer_5" data-name="Layer 5"><circle class="cls-22" cx="207.07" cy="205.42" r="4.47"/><text class="cls-23" transform="matrix(1, -0.04, 0.04, 1, 205.41, 207.95)">7</text><circle class="cls-22" cx="187.22" cy="265.23" r="4.47"/><text class="cls-23" transform="matrix(1, -0.04, 0.04, 1, 185.57, 267.76)">1</text><circle class="cls-22" cx="244.3" cy="164.38" r="4.61"/><text class="cls-24" transform="matrix(1, -0.04, 0.04, 1, 242.6, 166.99)">2</text><circle class="cls-22" cx="216.12" cy="269.7" r="3.81"/><text class="cls-25" transform="matrix(1, -0.04, 0.04, 1, 214.71, 271.85)">3</text><circle class="cls-22" cx="211.15" cy="288.3" r="4.08"/><text class="cls-26" transform="matrix(1, -0.04, 0.04, 1, 209.64, 290.6)">4</text><circle class="cls-22" cx="285.83" cy="184.55" r="4.47"/><text class="cls-23" transform="matrix(1, -0.04, 0.04, 1, 284.17, 187.08)">5</text><circle class="cls-22" cx="229.52" cy="209.92" r="3.8"/><text class="cls-27" transform="matrix(1, -0.04, 0.04, 1, 227.79, 212.08)">A</text><circle class="cls-22" cx="245.1" cy="210.64" r="3.81"/><text class="cls-28" transform="matrix(1, -0.04, 0.04, 1, 243.36, 212.81)">B</text><circle class="cls-22" cx="343.88" cy="138.25" r="4.47"/><text class="cls-23" transform="matrix(1, -0.04, 0.04, 1, 342.23, 140.78)">6</text><circle class="cls-22" cx="290.32" cy="146.52" r="3.25"/><text class="cls-29" transform="matrix(1, -0.04, 0.04, 1, 288.84, 148.36)">C</text><circle class="cls-22" cx="319.77" cy="182.21" r="3.81"/><text class="cls-28" transform="matrix(1, -0.04, 0.04, 1, 318.04, 184.38)">D</text><circle class="cls-22" cx="313.14" cy="80.41" r="4.47"/><text class="cls-23" transform="matrix(1, -0.04, 0.04, 1, 311.48, 82.94)">7</text><polygon class="cls-2" points="252 176.88 249.94 175.45 255.05 167.19 256.94 168.4 252 176.88"/><polygon class="cls-2" points="253.02 165.82 247.75 174.1 251.08 176.25 252 176.88 256.94 168.4 253.02 165.82"/><circle class="cls-22" cx="329.09" cy="154.37" r="3.8"/><text class="cls-27" transform="matrix(1, -0.04, 0.04, 1, 327.36, 156.53)">E</text></g><g id="Layer_3" data-name="Layer 3"><path class="cls-30" d="M279.23,421v.53a9.69,9.69,0,0,1-.34,2.08,1.15,1.15,0,0,1-.06.21,9.28,9.28,0,0,1-2.21,3.83c-3.19,3.31-4.65,8.86-4.65,8.86s-1.93-5.4-5.39-8.44a9.14,9.14,0,0,1-2.51-3.59c0-.07-.05-.15-.09-.23a10.42,10.42,0,0,1-.53-2.24c0-.11,0-.23,0-.34a8.35,8.35,0,0,1,0-.87,7.9,7.9,0,0,1,15.7-.66A8.08,8.08,0,0,1,279.23,421Z"/><polygon class="cls-20" points="265.67 420.74 271.05 417.31 276.53 420.28 275.66 420.99 275.85 425.43 275.31 425.45 274.96 421.31 271.6 423.72 265.67 420.74"/><path class="cls-20" d="M270.33,423.64s0,.85,1.25.8a1.42,1.42,0,0,0,1.39-1.13s1.29-1.32,1.55.47-1.64,2.63-3.81,2.5-2.36-1.7-2.21-2.38S269.32,423.05,270.33,423.64Z"/><path class="cls-30" d="M289.89,351.62a3.68,3.68,0,0,1,0,.47v0a9.66,9.66,0,0,1-.32,2l-.06.2a8.92,8.92,0,0,1-2.15,3.72c-3.1,3.22-4.52,8.62-4.52,8.62s-1.87-5.26-5.24-8.2a8.94,8.94,0,0,1-2.44-3.5l-.09-.22a9.81,9.81,0,0,1-.51-2.18c0-.11,0-.22,0-.33a5.85,5.85,0,0,1,0-.84,7.68,7.68,0,0,1,15.26-.65A5.7,5.7,0,0,1,289.89,351.62Z"/><polygon class="cls-20" points="276.71 351.41 281.95 348.08 287.27 350.96 286.43 351.66 286.61 355.98 286.09 356 285.74 351.97 282.47 354.31 276.71 351.41"/><path class="cls-20" d="M281.25,354.24s0,.82,1.21.77a1.36,1.36,0,0,0,1.35-1.1s1.26-1.28,1.51.46-1.6,2.56-3.7,2.43-2.3-1.65-2.16-2.31S280.26,353.66,281.25,354.24Z"/><path class="cls-31" d="M104.92,818.58c0,.18,0,.36,0,.54v0a11.37,11.37,0,0,1-.41,2.29c0,.07,0,.15-.07.23a10.2,10.2,0,0,1-2.52,4.19c-3.58,3.6-5.31,9.7-5.31,9.7s-2-6-5.78-9.43a10.19,10.19,0,0,1-2.71-4,2.67,2.67,0,0,0-.09-.26,11.55,11.55,0,0,1-.54-2.48c0-.12,0-.26,0-.38a7.58,7.58,0,0,1,0-1,8.73,8.73,0,0,1,17.35-.42A7.3,7.3,0,0,1,104.92,818.58Z"/><ellipse class="cls-32" cx="95.99" cy="818.17" rx="4.27" ry="4.66" transform="translate(-20.01 2.6) rotate(-1.4)"/><path class="cls-31" d="M196.44,626.34c0,.15,0,.31,0,.47v0a9.36,9.36,0,0,1-.37,2c0,.06,0,.13-.06.2a9,9,0,0,1-2.23,3.71c-3.17,3.18-4.69,8.57-4.69,8.57s-1.79-5.31-5.12-8.33a9,9,0,0,1-2.39-3.56c0-.07,0-.15-.08-.22a9.8,9.8,0,0,1-.48-2.2c0-.11,0-.23,0-.34a5.85,5.85,0,0,1,0-.84,7.72,7.72,0,0,1,15.35-.38A7.9,7.9,0,0,1,196.44,626.34Z"/><ellipse class="cls-32" cx="188.54" cy="625.97" rx="3.78" ry="4.12" transform="translate(-15.27 4.81) rotate(-1.4)"/><path class="cls-33" d="M215.87,189.18a2.71,2.71,0,0,1,0,.29v0a7.05,7.05,0,0,1-.25,1.23l-.05.12a5.47,5.47,0,0,1-1.41,2.23,14,14,0,0,0-3,5.17,14,14,0,0,0-3-5.17,5.39,5.39,0,0,1-1.41-2.2s0-.1-.05-.14a6.42,6.42,0,0,1-.26-1.35v-.21a4.24,4.24,0,0,1,0-.51,4.72,4.72,0,0,1,9.38,0A4.24,4.24,0,0,1,215.87,189.18Z"/><ellipse class="cls-32" cx="211.05" cy="188.84" rx="2.31" ry="2.52"/><path class="cls-33" d="M187.82,243.28c0,.1,0,.2,0,.31v0a6.76,6.76,0,0,1-.28,1.33.93.93,0,0,1,0,.13,5.86,5.86,0,0,1-1.52,2.39,15.12,15.12,0,0,0-3.22,5.56,15.12,15.12,0,0,0-3.22-5.56,5.81,5.81,0,0,1-1.51-2.37A1.21,1.21,0,0,1,178,245a6.38,6.38,0,0,1-.28-1.45,1.7,1.7,0,0,1,0-.22,5.07,5.07,0,1,1,10.14,0Z"/><ellipse class="cls-32" cx="182.64" cy="242.91" rx="2.48" ry="2.7"/><path class="cls-33" d="M284.1,156.77c0,.08,0,.16,0,.24v0a4.86,4.86,0,0,1-.22,1l0,.1a4.64,4.64,0,0,1-1.19,1.87,11.8,11.8,0,0,0-2.51,4.34,11.73,11.73,0,0,0-2.52-4.34,4.51,4.51,0,0,1-1.18-1.85.56.56,0,0,1,0-.12,4.73,4.73,0,0,1-.22-1.13.91.91,0,0,1,0-.17,3.25,3.25,0,0,1,0-.44,4,4,0,0,1,7.87,0A3.25,3.25,0,0,1,284.1,156.77Z"/><ellipse class="cls-32" cx="280.05" cy="156.48" rx="1.94" ry="2.11"/><path class="cls-30" d="M275.37,218.67c0,.14,0,.28,0,.42v0a9.07,9.07,0,0,1-.37,1.79l-.06.18a8.12,8.12,0,0,1-2.06,3.25c-2.89,2.75-4.36,7.51-4.36,7.51s-1.47-4.76-4.36-7.51a8,8,0,0,1-2-3.21,1.18,1.18,0,0,0-.07-.2,10,10,0,0,1-.38-2v-.29a6.34,6.34,0,0,1,0-.76,6.86,6.86,0,0,1,13.64,0A6.34,6.34,0,0,1,275.37,218.67Z"/><polygon class="cls-20" points="263.62 217.98 268.42 215.21 273.06 217.98 272.28 218.57 272.28 222.43 271.81 222.43 271.66 218.82 268.65 220.79 263.62 217.98"/><path class="cls-20" d="M267.56,220.67s0,.74,1.05.74a1.23,1.23,0,0,0,1.25-.93s1.17-1.1,1.33.46-1.52,2.23-3.4,2-2-1.56-1.83-2.14S266.7,220.13,267.56,220.67Z"/><path class="cls-33" d="M339.41,103.63c0,.11,0,.21,0,.32v0a6.26,6.26,0,0,1-.28,1.35.93.93,0,0,1,0,.13,6,6,0,0,1-1.54,2.43,15.23,15.23,0,0,0-3.27,5.64,15.39,15.39,0,0,0-3.27-5.64,6,6,0,0,1-1.54-2.4s0-.1,0-.15a6.52,6.52,0,0,1-.28-1.47,1.85,1.85,0,0,1,0-.23,3.43,3.43,0,0,1,0-.56,5.14,5.14,0,0,1,10.25.56Z"/><ellipse class="cls-32" cx="334.16" cy="103.26" rx="2.51" ry="2.74"/><path class="cls-33" d="M204.43,276.39c0,.1,0,.21,0,.31v0a6.72,6.72,0,0,1-.27,1.32s0,.09-.05.13a5.82,5.82,0,0,1-1.52,2.4,15,15,0,0,0-3.22,5.55,14.88,14.88,0,0,0-3.22-5.55,5.87,5.87,0,0,1-1.51-2.37l0-.15a6.28,6.28,0,0,1-.28-1.45,1.62,1.62,0,0,1,0-.22,3.52,3.52,0,0,1,0-.56,5.07,5.07,0,0,1,10.07,0A5.25,5.25,0,0,1,204.43,276.39Z"/><ellipse class="cls-32" cx="199.26" cy="276.02" rx="2.48" ry="2.7"/></g><g id="Layer_2" data-name="Layer 2"><text class="cls-34" transform="translate(257.69 318.17) rotate(-1.4)"><tspan class="cls-35">D</tspan><tspan x="8.04" y="0">epa</tspan><tspan class="cls-36" x="26.66" y="0">r</tspan><tspan class="cls-37" x="30.87" y="0">tme</tspan><tspan class="cls-38" x="50.87" y="0">n</tspan><tspan class="cls-37" x="57.48" y="0">t of</tspan><tspan class="cls-39" x="-8.66" y="14.4">C</tspan><tspan x="-1.83" y="14.4">ompu</tspan><tspan class="cls-40" x="28.21" y="14.4">t</tspan><tspan x="32.11" y="14.4">er </tspan><tspan class="cls-41" x="44.58" y="14.4">S</tspan><tspan x="50.57" y="14.4">cien</tspan><tspan class="cls-42" x="71.43" y="14.4">c</tspan><tspan class="cls-37" x="76.73" y="14.4">e</tspan></text><text class="cls-43" transform="translate(248.25 448.54) rotate(-1.4)"><tspan class="cls-44">D</tspan><tspan x="7.37" y="0">epa</tspan><tspan class="cls-45" x="24.44" y="0">r</tspan><tspan x="28.3" y="0">tme</tspan><tspan class="cls-46" x="46.63" y="0">n</tspan><tspan x="52.69" y="0">t of</tspan><tspan class="cls-47" x="4.28" y="13.2">M</tspan><tspan class="cls-48" x="13.19" y="13.2">a</tspan><tspan x="18.45" y="13.2">them</tspan><tspan class="cls-48" x="42.88" y="13.2">a</tspan><tspan x="48.13" y="13.2">tics</tspan></text><text class="cls-49" transform="translate(35.33 809.2) rotate(-1.4)"><tspan class="cls-50">M</tspan><tspan x="11.34" y="0">ain </tspan><tspan class="cls-51" x="32.1" y="0">G</tspan><tspan class="cls-52" x="41.26" y="0">a</tspan><tspan class="cls-53" x="47.95" y="0">t</tspan><tspan class="cls-54" x="52.5" y="0">e</tspan></text><text class="cls-49" transform="translate(173.02 614.67) rotate(-1.4)">Y Jun<tspan class="cls-55" x="31.21" y="0">c</tspan><tspan x="37.66" y="0">tion</tspan></text><text class="cls-49" transform="translate(125.04 234.42) rotate(-1.4)"><tspan class="cls-50">M</tspan><tspan x="11.34" y="0">ain</tspan><tspan x="-11.17" y="16.8">E</tspan><tspan class="cls-52" x="-4.28" y="16.8">n</tspan><tspan class="cls-54" x="3.44" y="16.8">t</tspan><tspan class="cls-56" x="8.07" y="16.8">r</tspan><tspan x="12.58" y="16.8">an</tspan><tspan class="cls-53" x="27.1" y="16.8">c</tspan><tspan x="33.28" y="16.8">e</tspan></text><text class="cls-57" transform="translate(194.86 302.18) rotate(-1.4)">P<tspan class="cls-58" x="4.79" y="0">L</tspan><tspan x="8.24" y="0">T1</tspan></text><text class="cls-57" transform="translate(274.58 175.02) rotate(-1.4)">P<tspan class="cls-58" x="4.79" y="0">L</tspan><tspan x="8.24" y="0">T2</tspan></text><text class="cls-59" transform="translate(246.52 242.9)"><tspan class="cls-60">D</tspan><tspan x="10.05" y="0">epa</tspan><tspan class="cls-61" x="33.33" y="0">r</tspan><tspan x="38.59" y="0">tme</tspan><tspan class="cls-62" x="63.58" y="0">n</tspan><tspan x="71.85" y="0">t of</tspan><tspan class="cls-63" x="23.74" y="18">P</tspan><tspan class="cls-64" x="31.65" y="18">h</tspan><tspan class="cls-65" x="39.78" y="18">y</tspan><tspan x="46.75" y="18">sics</tspan></text><text class="cls-66" transform="translate(332.13 130.53) rotate(-1.4)"><tspan class="cls-67">M</tspan><tspan x="12.96" y="0">ain Building</tspan></text></g><g id="Layer_8" data-name="Layer 8"><path class="cls-68" d="M184.32,254.93s11.54-6.51,22.75-22,40.06-63.41,40.06-63.41L250.7,172l-49,81,5.52,13.67"/><polygon class="cls-69" points="204.94 265.48 207.14 266.42 208.08 264.21 208.62 265.55 207.68 267.75 205.48 266.82 204.94 265.48"/><polyline class="cls-68" points="226.58 292.38 230.41 290.6 215.56 252.12 256.32 180.08 264.24 176.04 259.13 162.51 271.99 157.79"/><polygon class="cls-69" points="270.7 160.07 271.71 157.9 269.53 156.89 270.88 156.39 273.06 157.4 272.05 159.58 270.7 160.07"/><polyline class="cls-68" points="284.71 152.81 293.73 150.14 305.77 180.91 326.64 173.66"/><polygon class="cls-69" points="325.32 175.91 326.37 173.75 324.21 172.71 325.57 172.24 327.73 173.28 326.68 175.44 325.32 175.91"/><path class="cls-70" d="M202.51,306.51a4.33,4.33,0,1,0-8.65,0,4.17,4.17,0,0,0,0,.71,6.2,6.2,0,0,0,.2.76,52,52,0,0,0,4.08,8v0l0,0c.37-.61,3.82-6.36,4.27-8.8h0A5.52,5.52,0,0,0,202.51,306.51Z"/><path class="cls-70" d="M194.1,308a4,4,0,0,1-.2-.77A5.88,5.88,0,0,0,194.1,308Z"/><circle class="cls-20" cx="198.18" cy="306.55" r="3.45"/><path class="cls-70" d="M195.87,306.67v-1.16s0-.27.41-.34l1.13,0s.42.06.44.43v1.09s-.14.28-.33,0v-1h-.13v3.09s-.19.32-.46,0v-2h-.13v2a.24.24,0,0,1-.44,0v-3.08h-.13v1S196,307,195.87,306.67Z"/><circle class="cls-70" cx="196.9" cy="304.58" r="0.41"/><circle class="cls-70" cx="199.23" cy="304.64" r="0.41"/><path class="cls-70" d="M197.89,306.64l.35-1.07a.69.69,0,0,1,.61-.36h.79s.42.07.51.31.37,1.11.37,1.11,0,.39-.33.11c-.1-.35-.35-1-.35-1h-.12l.54,1.63h-.54v1.42s-.22.41-.46,0v-1.41h-.13v1.41s-.21.43-.46,0c0-.4,0-1.4,0-1.4h-.54l.55-1.62h-.13l-.35,1S197.94,307,197.89,306.64Z"/><path class="cls-70" d="M191.66,276.52a3.9,3.9,0,0,0-7.8,0,3.39,3.39,0,0,0,0,.64,5.08,5.08,0,0,0,.18.69,46.51,46.51,0,0,0,3.67,7.24v0l0,0c.33-.55,3.45-5.73,3.85-7.93h0A4.48,4.48,0,0,0,191.66,276.52Z"/><path class="cls-70" d="M184.07,277.83a3.88,3.88,0,0,1-.18-.69A5.91,5.91,0,0,0,184.07,277.83Z"/><circle class="cls-20" cx="187.76" cy="276.56" r="3.11"/><path class="cls-70" d="M185.67,276.67v-1.05a.4.4,0,0,1,.37-.31l1,0s.38.06.4.39v1s-.13.25-.3,0v-.91H187v2.79s-.17.29-.42,0v-1.83h-.11v1.82a.21.21,0,0,1-.39,0v-2.78H186v.91S185.82,276.92,185.67,276.67Z"/><circle class="cls-70" cx="186.6" cy="274.78" r="0.37"/><circle class="cls-70" cx="188.7" cy="274.83" r="0.37"/><path class="cls-70" d="M187.49,276.64l.32-1a.59.59,0,0,1,.54-.32h.72s.38.06.46.28.33,1,.33,1,0,.35-.29.09c-.1-.3-.32-.91-.32-.91h-.11l.49,1.47h-.49v1.28s-.2.36-.42,0c0-.31,0-1.26,0-1.26h-.12v1.27s-.18.38-.4,0v-1.26h-.49l.49-1.47h-.11l-.32.91S187.54,277,187.49,276.64Z"/><path class="cls-70" d="M357.94,177.39a5.08,5.08,0,0,0-10.15,0,5.44,5.44,0,0,0,.07.82,8,8,0,0,0,.23.9c1,3.18,4.38,8.77,4.78,9.42v0l0,0c.44-.71,4.49-7.45,5-10.32h0A5.69,5.69,0,0,0,357.94,177.39Z"/><path class="cls-70" d="M348.07,179.1a5.4,5.4,0,0,1-.23-.9A8.54,8.54,0,0,0,348.07,179.1Z"/><circle class="cls-20" cx="352.87" cy="177.44" r="4.05"/><path class="cls-70" d="M350.15,177.58v-1.36a.54.54,0,0,1,.48-.41l1.33,0s.49.07.52.51,0,1.28,0,1.28-.17.33-.39,0V176.4h-.16V180s-.22.38-.54,0v-2.37h-.15V180a.28.28,0,0,1-.51,0V176.4h-.16v1.18S350.35,177.91,350.15,177.58Z"/><circle class="cls-70" cx="351.36" cy="175.12" r="0.48"/><circle class="cls-70" cx="354.09" cy="175.19" r="0.48"/><path class="cls-70" d="M352.52,177.54l.41-1.26a.79.79,0,0,1,.71-.41h.93s.49.08.6.36l.43,1.3s0,.46-.38.12c-.13-.4-.42-1.18-.42-1.18h-.13l.63,1.91h-.64V180s-.25.47-.54,0v-1.65H354V180s-.24.5-.53,0v-1.63h-.64l.64-1.9h-.14l-.42,1.19S352.58,178,352.52,177.54Z"/><path class="cls-70" d="M324.11,98.48a4.34,4.34,0,1,0-8.67,0,5.36,5.36,0,0,0,.05.7c.05.23.12.49.2.77a52.69,52.69,0,0,0,4.08,8l0,0,0,0c.37-.61,3.83-6.37,4.28-8.82h0A4,4,0,0,0,324.11,98.48Z"/><path class="cls-70" d="M315.68,99.94a4.15,4.15,0,0,1-.2-.77A6.31,6.31,0,0,0,315.68,99.94Z"/><circle class="cls-20" cx="319.77" cy="98.52" r="3.46"/><path class="cls-70" d="M317.45,98.64V97.47s0-.27.42-.34l1.13,0s.42.06.44.43v1.1s-.14.28-.33,0v-1H319v3.1s-.2.32-.47,0c0-.3,0-2,0-2h-.13l0,2s-.19.34-.43,0V97.63h-.14v1S317.62,98.92,317.45,98.64Z"/><circle class="cls-70" cx="318.49" cy="96.54" r="0.41"/><circle class="cls-70" cx="320.82" cy="96.6" r="0.41"/><path class="cls-70" d="M319.48,98.6l.35-1.07a.67.67,0,0,1,.61-.35l.79,0s.42.07.51.31.37,1.12.37,1.12,0,.39-.32.1c-.11-.34-.36-1-.36-1h-.11l.54,1.64h-.55v1.42s-.22.41-.46,0v-1.4h-.13v1.42s-.21.43-.45,0c0-.4,0-1.4,0-1.4h-.54l.55-1.63h-.13l-.35,1S319.53,99,319.48,98.6Z"/><text class="cls-49" transform="translate(28.29 511.4)"><tspan class="cls-71">P</tspan><tspan class="cls-54" x="7.38" y="0">l</tspan><tspan class="cls-72" x="10.68" y="0">a</tspan><tspan class="cls-54" x="17.32" y="0">y G</tspan><tspan class="cls-73" x="35.92" y="0">r</tspan><tspan x="40.36" y="0">ound</tspan></text></g></svg>